<svg xmlns="http://www.w3.org/2000/svg" version="1.1" xmlns:xlink="http://www.w3.org/1999/xlink" xmlns:svgjs="http://svgjs.com/svgjs" width="1000" height="750"><svg xmlns="http://www.w3.org/2000/svg" version="1.1" xmlns:xlink="http://www.w3.org/1999/xlink" xmlns:svgjs="http://svgjs.dev/svgjs" width="1000" height="750" viewBox="0 0 1000 750"><rect width="1000" height="750" fill="#755bb4"></rect><g transform="matrix(0.834,0,0,0.834,82.49454545454546,115.4193570850203)"><svg viewBox="0 0 396 247" data-background-color="#755bb4" preserveAspectRatio="xMidYMid meet" height="623" width="1000" xmlns="http://www.w3.org/2000/svg" xmlns:xlink="http://www.w3.org/1999/xlink"><g id="SvgjsG1008" transform="matrix(1,0,0,1,0.2400000000000091,-0.09999999999999432)"><svg viewBox="0 0 395.52 247.2" height="247.2" width="395.52"><g><svg></svg></g><g><svg viewBox="0 0 395.52 247.2" height="247.2" width="395.52"><g mask="url(&quot;#3846ab9a-61fe-4ab5-a09c-42f261534da7&quot;)"><g><path xmlns="http://www.w3.org/2000/svg" d="M133.669 123.478v0c-9.729 0-17.918-2.238-24.566-6.713-6.648-4.443-9.972-10.07-9.972-16.88v0c0-8.594 5.594-17.188 16.783-25.782v0c1.946-1.459 3.405-2.189 4.378-2.189 0.973 0 1.459 0.324 1.459 0.973v0c0 1.622-1.297 2.919-3.891 3.892v0c-9.081 7.297-13.621 14.675-13.621 22.133v0c0 5.351 2.432 9.843 7.297 13.475 4.865 3.665 10.945 5.497 18.242 5.497v0c15.891 0 30.89-7.621 44.997-22.863v0c7.297-7.945 10.945-17.107 10.945-27.485 0-10.378-3.892-18.08-11.675-23.107v0c-6.486-4.54-15.242-6.81-26.268-6.81v0c-15.891 0-31.863 3.973-47.916 11.918v0c-19.783 9.567-37.652 24.436-53.608 44.608-15.988 20.204-23.982 39.63-23.982 58.278v0c0 14.756 5.027 26.139 15.08 34.149 10.053 8.043 22.539 12.064 37.457 12.064v0c17.026 0 33.728-4.135 50.105-12.405v0c12.486-6.486 23.269-14.756 32.35-24.809v0c2.594-2.919 4.621-4.378 6.08-4.378v0c0.973 0 1.459 0.843 1.46 2.529 0 1.719-0.892 3.47-2.676 5.254v0c-8.594 9.081-20.999 17.837-37.214 26.269v0c-19.945 10.54-40.003 15.81-60.175 15.81-20.204 0-35.252-6.648-45.143-19.945v0c-6.648-8.756-9.972-19.215-9.972-31.376v0c0-5.351 0.649-11.107 1.946-17.27v0c4.378-20.755 15.891-40.943 34.538-60.564v0c13.459-14.107 29.431-25.101 47.916-32.981 18.485-7.848 35.998-11.772 52.537-11.773v0c8.756 0 16.377 1.054 22.864 3.162v0c17.675 5.513 26.512 16.621 26.512 33.323v0c0 10.216-3 19.053-9 26.512v0c-14.918 18.323-32.674 27.485-53.267 27.484zM371.06 86.994v0c-6 2.432-11.14 3.648-15.421 3.649-4.313 0-6.47-0.892-6.469-2.676v0c0-1.135 2.4-1.784 7.199-1.946 4.767-0.162 8.205-0.73 10.313-1.702v0c6.162-3.243 9.243-8.027 9.243-14.351v0c0-3.243-0.892-6.648-2.676-10.215v0c-5.189-9.243-17.756-13.864-37.7-13.864v0c-11.513 0-23.026 1.735-34.539 5.205-11.513 3.502-21.161 8.854-28.944 16.053-7.783 7.232-11.675 13.929-11.675 20.09v0c0 9.405 9.324 16.296 27.972 20.675v0l28.7 5.351c11.513 2.108 20.107 5.027 25.783 8.756v0c7.459 4.54 11.188 11.026 11.188 19.458v0c0 3.405-0.568 7.054-1.702 10.946v0c-5.189 17.512-18.566 30.89-40.133 40.132v0c-17.999 7.945-39.241 11.918-63.726 11.918v0c-6.973 0-13.053-0.324-18.242-0.973v0c5.189 2.919 11.999 5.432 20.431 7.541v0c0.649 0.162 0.973 0.486 0.973 0.972v0c0 1.459-1.703 2.189-5.108 2.189v0c-6.648 0-14.918-3.973-24.809-11.918v0c-13.459-2.108-23.512-5.837-30.16-11.188v0c-4.216-3.405-8.108-8.432-11.675-15.08-3.567-6.648-5.351-12.648-5.351-17.999 0-5.351 1.054-9.81 3.162-13.378v0c4.865-8.594 11.026-12.891 18.485-12.891v0c5.675 0 8.999 4.783 9.972 14.351v0c2.27 18.485 3.811 29.025 4.622 31.619v0c2.432 7.945 6.567 14.675 12.404 20.188v0c6.81 1.459 14.188 2.189 22.134 2.189v0c17.512 0 34.701-3.486 51.565-10.459 16.864-6.973 29.025-16.864 36.484-29.673v0c3.081-5.027 4.621-9.486 4.621-13.378v0c0-7.621-6.729-13.54-20.188-17.756v0l-42.808-9.729c-8.756-2.108-15.761-5.594-21.015-10.459-5.286-4.865-7.929-10.459-7.929-16.782v0c0-9.729 6.081-19.458 18.242-29.188v0c9.243-7.459 20.561-13.264 33.955-17.415 13.361-4.119 26.496-6.178 39.403-6.178 12.875 0 23.528 1.865 31.96 5.594v0c10.864 5.027 16.296 12.356 16.296 21.988 0 9.664-4.946 16.442-14.837 20.334zM214.421 195.474v0c-9.405-10.378-15.404-24.566-17.999-42.565v0c-1.459-10.216-2.838-15.323-4.135-15.323-1.297 0-2.513 0.357-3.648 1.07-1.135 0.746-2.27 2.335-3.405 4.767-1.135 2.432-1.703 5.594-1.703 9.486v0c0 12.486 4.378 23.188 13.134 32.106v0c4.378 4.54 10.297 8.027 17.756 10.459z" fill="#ffffff" fill-rule="nonzero" stroke="none" stroke-width="1" stroke-linecap="butt" stroke-linejoin="miter" stroke-miterlimit="10" stroke-dasharray="" stroke-dashoffset="0" font-family="none" font-weight="none" font-size="none" text-anchor="none" style="mix-blend-mode: normal" data-fill-palette-color="tertiary"></path></g></g><g transform="matrix(1,0,0,1,8.849467455621294,37.08)"><svg viewBox="0 0 377.8210650887574 173.04" height="173.04" width="377.8210650887574"><g><svg viewBox="0 0 377.8210650887574 173.04" height="173.04" width="377.8210650887574"><g><svg viewBox="0 0 377.8210650887574 173.04" height="173.04" width="377.8210650887574"><g><svg viewBox="0 0 377.8210650887574 173.04" height="173.04" width="377.8210650887574"><g id="SvgjsG1007"><svg viewBox="0 0 377.8210650887574 173.04" height="173.04" width="377.8210650887574" id="SvgjsSvg1006"><g><svg viewBox="0 0 377.8210650887574 173.04" height="173.04" width="377.8210650887574"><g transform="matrix(1,0,0,1,0,0)"><svg width="377.8210650887574" viewBox="-1.4500000476837158 -35.5 93.25 43.25" height="173.04" data-palette-color="#ffffff"><path d="M27.05-13.9L27.05-13.9Q24.05-13.9 22-15.28 19.95-16.65 19.95-18.75L19.95-18.75Q19.95-21.4 23.4-24.05L23.4-24.05Q24-24.5 24.3-24.5 24.6-24.5 24.6-24.3L24.6-24.3Q24.6-23.8 23.8-23.5L23.8-23.5Q21-21.25 21-18.95L21-18.95Q21-17.3 22.5-16.18 24-15.05 26.25-15.05L26.25-15.05Q31.15-15.05 35.5-19.75L35.5-19.75Q37.75-22.2 37.75-25.4 37.75-28.6 35.35-30.15L35.35-30.15Q33.35-31.55 29.95-31.55L29.95-31.55Q25.05-31.55 20.1-29.1L20.1-29.1Q14-26.15 9.08-19.93 4.15-13.7 4.15-7.95L4.15-7.95Q4.15-3.4 7.25-0.93 10.35 1.55 14.95 1.55L14.95 1.55Q20.2 1.55 25.25-1L25.25-1Q29.1-3 31.9-6.1L31.9-6.1Q32.7-7 33.15-7L33.15-7Q33.45-7 33.45-6.48 33.45-5.95 32.9-5.4L32.9-5.4Q30.25-2.6 25.25 0L25.25 0Q19.1 3.25 12.88 3.25 6.65 3.25 3.6-0.85L3.6-0.85Q1.55-3.55 1.55-7.3L1.55-7.3Q1.55-8.95 1.95-10.85L1.95-10.85Q3.3-17.25 9.05-23.3L9.05-23.3Q13.2-27.65 18.9-30.08 24.6-32.5 29.7-32.5L29.7-32.5Q32.4-32.5 34.4-31.85L34.4-31.85Q39.85-30.15 39.85-25L39.85-25Q39.85-21.85 38-19.55L38-19.55Q33.4-13.9 27.05-13.9ZM85.75-21.4L85.75-21.4Q83.9-20.65 82.57-20.65 81.25-20.65 81.25-21.2L81.25-21.2Q81.25-21.55 82.72-21.6 84.2-21.65 84.85-21.95L84.85-21.95Q86.75-22.95 86.75-24.9L86.75-24.9Q86.75-25.9 86.2-27L86.2-27Q84.6-29.85 78.45-29.85L78.45-29.85Q74.9-29.85 71.35-28.78 67.8-27.7 65.4-25.48 63-23.25 63-21.35L63-21.35Q63-18.45 68.75-17.1L68.75-17.1 74.65-16Q78.2-15.35 79.95-14.2L79.95-14.2Q82.25-12.8 82.25-10.2L82.25-10.2Q82.25-9.15 81.9-7.95L81.9-7.95Q80.3-2.55 73.65 0.3L73.65 0.3Q68.1 2.75 60.55 2.75L60.55 2.75Q58.4 2.75 56.8 2.55L56.8 2.55Q58.4 3.45 61 4.1L61 4.1Q61.2 4.15 61.2 4.3L61.2 4.3Q61.2 4.75 60.15 4.75L60.15 4.75Q58.1 4.75 55.05 2.3L55.05 2.3Q50.9 1.65 48.85 0L48.85 0Q47.55-1.05 46.45-3.1 45.35-5.15 45.35-6.8 45.35-8.45 46-9.55L46-9.55Q47.5-12.2 49.8-12.2L49.8-12.2Q51.55-12.2 51.85-9.25L51.85-9.25Q52.55-3.55 52.8-2.75L52.8-2.75Q53.55-0.3 55.35 1.4L55.35 1.4Q57.45 1.85 59.9 1.85L59.9 1.85Q65.3 1.85 70.5-0.3 75.7-2.45 78-6.4L78-6.4Q78.95-7.95 78.95-9.15L78.95-9.15Q78.95-11.5 74.8-12.8L74.8-12.8 66-14.8Q63.3-15.45 61.67-16.95 60.05-18.45 60.05-20.4L60.05-20.4Q60.05-23.4 63.8-26.4L63.8-26.4Q66.65-28.7 70.77-29.98 74.9-31.25 78.87-31.25 82.84-31.25 85.45-30.1L85.45-30.1Q88.8-28.55 88.8-25.58 88.8-22.6 85.75-21.4ZM53.55 0.9L53.55 0.9Q50.65-2.3 49.85-7.85L49.85-7.85Q49.4-11 49-11 48.6-11 48.25-10.78 47.9-10.55 47.55-9.8 47.2-9.05 47.2-7.85L47.2-7.85Q47.2-4 49.9-1.25L49.9-1.25Q51.25 0.15 53.55 0.9Z" opacity="1" transform="matrix(1,0,0,1,0,0)" fill="#ffffff" class="undefined-text-0" data-fill-palette-color="primary" id="SvgjsPath1005"></path></svg></g></svg></g></svg></g></svg></g></svg></g></svg></g></svg></g></svg></g><defs><mask id="SvgjsMask1004"><rect width="395.52" height="247.2" fill="white"></rect><g transform="matrix(1,0,0,1,8.849467455621294,37.08)" id="SvgjsG1003"><svg viewBox="0 0 377.8210650887574 173.04" height="173.04" width="377.8210650887574"><g><svg viewBox="0 0 377.8210650887574 173.04" height="173.04" width="377.8210650887574"><g><svg viewBox="0 0 377.8210650887574 173.04" height="173.04" width="377.8210650887574"><g><svg viewBox="0 0 377.8210650887574 173.04" height="173.04" width="377.8210650887574"><g id="SvgjsG1002"><svg viewBox="0 0 377.8210650887574 173.04" height="173.04" width="377.8210650887574" id="SvgjsSvg1001"><g><svg viewBox="0 0 377.8210650887574 173.04" height="173.04" width="377.8210650887574"><g transform="matrix(1,0,0,1,0,0)"><svg width="377.8210650887574" viewBox="-1.4500000476837158 -35.5 93.25 43.25" height="173.04" data-palette-color="#ffffff"><path d="M27.05-13.9L27.05-13.9Q24.05-13.9 22-15.28 19.95-16.65 19.95-18.75L19.95-18.75Q19.95-21.4 23.4-24.05L23.4-24.05Q24-24.5 24.3-24.5 24.6-24.5 24.6-24.3L24.6-24.3Q24.6-23.8 23.8-23.5L23.8-23.5Q21-21.25 21-18.95L21-18.95Q21-17.3 22.5-16.18 24-15.05 26.25-15.05L26.25-15.05Q31.15-15.05 35.5-19.75L35.5-19.75Q37.75-22.2 37.75-25.4 37.75-28.6 35.35-30.15L35.35-30.15Q33.35-31.55 29.95-31.55L29.95-31.55Q25.05-31.55 20.1-29.1L20.1-29.1Q14-26.15 9.08-19.93 4.15-13.7 4.15-7.95L4.15-7.95Q4.15-3.4 7.25-0.93 10.35 1.55 14.95 1.55L14.95 1.55Q20.2 1.55 25.25-1L25.25-1Q29.1-3 31.9-6.1L31.9-6.1Q32.7-7 33.15-7L33.15-7Q33.45-7 33.45-6.48 33.45-5.95 32.9-5.4L32.9-5.4Q30.25-2.6 25.25 0L25.25 0Q19.1 3.25 12.88 3.25 6.65 3.25 3.6-0.85L3.6-0.85Q1.55-3.55 1.55-7.3L1.55-7.3Q1.55-8.95 1.95-10.85L1.95-10.85Q3.3-17.25 9.05-23.3L9.05-23.3Q13.2-27.65 18.9-30.08 24.6-32.5 29.7-32.5L29.7-32.5Q32.4-32.5 34.4-31.85L34.4-31.85Q39.85-30.15 39.85-25L39.85-25Q39.85-21.85 38-19.55L38-19.55Q33.4-13.9 27.05-13.9ZM85.75-21.4L85.75-21.4Q83.9-20.65 82.57-20.65 81.25-20.65 81.25-21.2L81.25-21.2Q81.25-21.55 82.72-21.6 84.2-21.65 84.85-21.95L84.85-21.95Q86.75-22.95 86.75-24.9L86.75-24.9Q86.75-25.9 86.2-27L86.2-27Q84.6-29.85 78.45-29.85L78.45-29.85Q74.9-29.85 71.35-28.78 67.8-27.7 65.4-25.48 63-23.25 63-21.35L63-21.35Q63-18.45 68.75-17.1L68.75-17.1 74.65-16Q78.2-15.35 79.95-14.2L79.95-14.2Q82.25-12.8 82.25-10.2L82.25-10.2Q82.25-9.15 81.9-7.95L81.9-7.95Q80.3-2.55 73.65 0.3L73.65 0.3Q68.1 2.75 60.55 2.75L60.55 2.75Q58.4 2.75 56.8 2.55L56.8 2.55Q58.4 3.45 61 4.1L61 4.1Q61.2 4.15 61.2 4.3L61.2 4.3Q61.2 4.75 60.15 4.75L60.15 4.75Q58.1 4.75 55.05 2.3L55.05 2.3Q50.9 1.65 48.85 0L48.85 0Q47.55-1.05 46.45-3.1 45.35-5.15 45.35-6.8 45.35-8.45 46-9.55L46-9.55Q47.5-12.2 49.8-12.2L49.8-12.2Q51.55-12.2 51.85-9.25L51.85-9.25Q52.55-3.55 52.8-2.75L52.8-2.75Q53.55-0.3 55.35 1.4L55.35 1.4Q57.45 1.85 59.9 1.85L59.9 1.85Q65.3 1.85 70.5-0.3 75.7-2.45 78-6.4L78-6.4Q78.95-7.95 78.95-9.15L78.95-9.15Q78.95-11.5 74.8-12.8L74.8-12.8 66-14.8Q63.3-15.45 61.67-16.95 60.05-18.45 60.05-20.4L60.05-20.4Q60.05-23.4 63.8-26.4L63.8-26.4Q66.65-28.7 70.77-29.98 74.9-31.25 78.87-31.25 82.84-31.25 85.45-30.1L85.45-30.1Q88.8-28.55 88.8-25.58 88.8-22.6 85.75-21.4ZM53.55 0.9L53.55 0.9Q50.65-2.3 49.85-7.85L49.85-7.85Q49.4-11 49-11 48.6-11 48.25-10.78 47.9-10.55 47.55-9.8 47.2-9.05 47.2-7.85L47.2-7.85Q47.2-4 49.9-1.25L49.9-1.25Q51.25 0.15 53.55 0.9Z" opacity="1" transform="matrix(1,0,0,1,0,0)" fill="#ffffff" class="undefined-text-0" data-fill-palette-color="primary" id="SvgjsPath1000" stroke-width="5" stroke="black" stroke-linejoin="round"></path></svg></g></svg></g></svg></g></svg></g></svg></g></svg></g></svg></g></mask></defs></svg><rect width="395.52" height="247.2" fill="none" stroke="none" visibility="hidden"></rect></g></svg></g></svg><style>@media (prefers-color-scheme: light) { :root { filter: none; } }
</style></svg>